<?xml version="1.0" standalone="no"?>
<!DOCTYPE svg PUBLIC "-//W3C//DTD SVG 20010904//EN"
 "http://www.w3.org/TR/2001/REC-SVG-20010904/DTD/svg10.dtd">
<svg version="1.0" xmlns="http://www.w3.org/2000/svg"
 width="676.000000pt" height="201.000000pt" viewBox="0 0 676.000000 201.000000"
 preserveAspectRatio="xMidYMid meet">

<g transform="translate(0.000000,201.000000) scale(0.100000,-0.100000)"
fill="#3483FA" stroke="none">
<path d="M6335 1916 c-62 -28 -116 -111 -114 -178 4 -172 214 -253 334 -128
57 60 62 178 9 247 -50 65 -154 92 -229 59z m163 -43 c42 -31 64 -68 69 -116
15 -126 -117 -217 -227 -158 -54 28 -80 74 -80 141 0 67 25 112 80 142 44 24
120 20 158 -9z"/>
<path d="M6340 1740 c0 -91 3 -110 15 -110 11 0 15 12 15 45 0 41 2 45 24 45
18 0 32 -12 53 -45 17 -27 35 -45 47 -45 17 0 17 1 2 25 -9 14 -23 36 -32 50
-9 14 -12 25 -6 25 20 0 42 31 42 59 0 44 -27 61 -98 61 l-62 0 0 -110z m128
56 c5 -26 -24 -46 -65 -46 -31 0 -33 2 -33 36 l0 35 47 -3 c38 -2 49 -7 51
-22z"/>
<path d="M4080 1650 c0 -99 0 -100 24 -100 31 0 78 -18 88 -33 4 -7 8 -42 8
-79 l0 -66 -42 21 c-35 18 -61 22 -133 22 -78 0 -97 -4 -146 -28 -156 -76
-253 -283 -221 -470 40 -232 220 -369 428 -327 33 6 78 23 102 36 l42 25 0
-26 0 -25 180 0 181 0 -3 67 -3 66 -45 11 c-31 8 -48 18 -57 36 -10 19 -13
138 -13 498 l0 472 -195 0 -195 0 0 -100z m85 -431 l35 -31 0 -185 0 -184 -26
-24 c-26 -24 -80 -45 -117 -45 -33 0 -72 28 -95 68 -62 111 -36 348 46 412 17
14 40 20 73 20 40 0 55 -5 84 -31z"/>
<path d="M448 1409 c-112 -26 -226 -119 -275 -224 -26 -56 -28 -69 -28 -185 0
-121 1 -128 32 -191 98 -198 333 -276 568 -188 81 30 205 152 205 202 0 7 -26
26 -58 41 l-58 28 -60 -59 c-109 -110 -228 -111 -302 -3 -34 50 -45 106 -40
210 5 114 29 179 80 210 62 39 138 8 138 -57 0 -91 59 -147 149 -140 46 3 59
9 82 35 97 108 -4 264 -206 318 -56 15 -170 17 -227 3z"/>
<path d="M2023 1405 c-149 -40 -239 -132 -278 -280 -42 -162 10 -349 121 -441
171 -142 480 -131 628 21 148 152 151 432 5 590 -49 53 -129 97 -207 114 -72
15 -205 13 -269 -4z m232 -188 c43 -43 57 -98 57 -217 0 -110 -15 -170 -52
-210 -53 -57 -153 -47 -197 18 -50 75 -57 276 -13 368 26 54 59 73 124 74 41
0 53 -5 81 -33z"/>
<path d="M4941 1404 c-119 -32 -209 -106 -259 -212 -25 -52 -27 -68 -27 -182
0 -147 18 -207 87 -285 71 -80 146 -118 272 -136 143 -20 290 20 381 103 198
181 157 560 -74 677 -95 49 -270 65 -380 35z m228 -180 c41 -35 61 -105 61
-219 0 -112 -19 -181 -60 -220 -27 -26 -39 -30 -85 -30 -46 0 -58 4 -85 30
-41 39 -60 108 -60 220 0 174 42 245 145 245 43 0 60 -5 84 -26z"/>
<path d="M6098 1401 c-32 -10 -73 -28 -93 -40 -20 -11 -38 -21 -41 -21 -2 0
-4 14 -4 30 l0 30 -185 0 -186 0 3 -87 3 -87 39 -8 c76 -16 76 -16 76 -239 l0
-198 -26 -20 c-15 -12 -35 -21 -45 -21 -43 0 -49 -10 -49 -76 l0 -64 240 0
240 0 0 64 c0 64 0 64 -37 83 -23 11 -40 28 -44 43 -4 14 -7 102 -8 197 l-1
172 33 25 c73 56 143 70 177 36 19 -19 20 -31 18 -238 l-3 -217 -37 -18 -38
-19 0 -64 0 -64 230 0 231 0 -3 67 -3 67 -35 9 c-65 16 -64 13 -70 280 -5 232
-6 244 -28 280 -66 104 -209 144 -354 98z"/>
<path d="M1024 1387 c-3 -8 -4 -47 -2 -88 3 -71 4 -74 28 -77 48 -6 80 -24 88
-51 9 -34 9 -348 0 -382 -8 -27 -40 -45 -88 -51 -24 -3 -25 -7 -28 -70 l-3
-68 256 0 256 0 -3 67 -3 68 -38 6 c-70 11 -72 16 -76 235 -3 206 0 224 43
224 11 0 39 -12 61 -25 51 -31 102 -32 146 -2 59 40 73 94 41 156 -25 49 -74
73 -142 69 -47 -4 -91 -19 -182 -66 -5 -2 -8 12 -8 32 l0 36 -170 0 c-134 0
-172 -3 -176 -13z"/>
<path d="M2652 1333 l3 -67 34 -7 c18 -4 42 -15 52 -25 15 -16 85 -170 249
-546 33 -77 33 -78 16 -115 -9 -21 -32 -56 -50 -78 l-34 -40 -24 21 c-34 32
-63 44 -100 44 -45 0 -78 -19 -106 -60 -31 -46 -27 -118 9 -156 76 -81 236
-70 341 25 54 48 100 135 264 501 165 366 193 410 277 427 26 5 27 7 27 74 l0
69 -210 0 -210 0 0 -69 0 -70 36 -3 c63 -5 63 -19 -4 -189 -54 -138 -61 -151
-70 -129 -5 14 -33 83 -62 155 -37 92 -49 134 -42 145 5 8 29 17 53 20 l44 5
3 68 3 67 -251 0 -251 0 3 -67z"/>
<path d="M5340 403 c-6 -32 -23 -109 -36 -171 -29 -137 -29 -142 -5 -142 16 0
22 11 31 58 32 155 38 183 42 188 3 2 27 -53 55 -123 28 -70 55 -129 60 -130
5 -2 33 57 63 132 l55 135 22 -107 c33 -158 31 -153 54 -153 15 0 20 5 17 18
-3 9 -20 92 -39 185 -19 92 -39 167 -44 167 -6 0 -35 -61 -65 -136 -30 -74
-57 -137 -61 -139 -3 -2 -30 57 -60 132 -30 75 -59 138 -66 140 -7 3 -16 -18
-23 -54z"/>
<path d="M4643 425 c-59 -36 -88 -86 -88 -156 0 -96 69 -169 169 -177 65 -5
146 26 146 56 0 30 -10 32 -46 7 -54 -37 -87 -40 -140 -14 -57 27 -84 69 -84
129 0 59 28 103 81 131 51 26 96 21 144 -15 34 -26 45 -25 45 5 0 28 -70 59
-132 59 -39 0 -64 -7 -95 -25z"/>
<path d="M4983 425 c-123 -74 -118 -252 9 -314 142 -68 302 44 274 193 -23
122 -174 186 -283 121z m144 -16 c67 -25 110 -100 96 -169 -8 -45 -71 -105
-117 -114 -26 -5 -48 -1 -81 13 -112 50 -115 204 -5 262 40 22 67 24 107 8z"/>
<path d="M5963 425 c-59 -36 -88 -86 -88 -156 0 -96 69 -169 169 -177 65 -5
146 26 146 56 0 30 -10 32 -46 7 -54 -37 -87 -40 -140 -14 -57 27 -84 69 -84
129 0 59 28 103 81 131 51 26 96 21 144 -15 34 -26 45 -25 45 5 0 28 -70 59
-132 59 -39 0 -64 -7 -95 -25z"/>
<path d="M6313 425 c-123 -74 -118 -252 9 -314 142 -68 302 44 274 193 -23
122 -174 186 -283 121z m144 -16 c67 -25 110 -100 96 -169 -8 -45 -71 -105
-117 -114 -26 -5 -48 -1 -81 13 -112 50 -115 204 -5 262 40 22 67 24 107 8z"/>
<path d="M4433 114 c-3 -8 -1 -20 5 -26 16 -16 42 -2 42 22 0 24 -38 28 -47 4z"/>
<path d="M5760 110 c0 -25 25 -36 45 -20 20 16 7 40 -21 40 -17 0 -24 -6 -24
-20z"/>
</g>
</svg>
