<?xml version="1.0" standalone="no"?>
<!DOCTYPE svg PUBLIC "-//W3C//DTD SVG 20010904//EN"
 "http://www.w3.org/TR/2001/REC-SVG-20010904/DTD/svg10.dtd">
<svg version="1.0" xmlns="http://www.w3.org/2000/svg"
 width="200.000000pt" height="65.000000pt" viewBox="0 0 200.000000 65.000000"
 preserveAspectRatio="xMidYMid meet">

<g transform="translate(0.000000,65.000000) scale(0.100000,-0.100000)"
fill="#000000" stroke="none">
<path d="M92 633 c-47 -23 -80 -67 -87 -116 -3 -23 -5 -148 -3 -277 l3 -235
940 0 c925 0 941 0 975 20 21 12 44 39 58 65 22 43 23 53 20 251 l-3 206 -27
35 c-55 72 3 68 -970 68 -783 0 -876 -2 -906 -17z m1794 -68 c20 -31 10 -63
-23 -71 -34 -9 -57 6 -61 40 -7 55 53 78 84 31z m-616 -160 c0 -111 3 -137 15
-141 8 -4 15 -14 15 -25 0 -17 -9 -18 -99 -18 -111 0 -130 9 -151 74 -25 77
38 163 111 153 23 -4 29 -1 29 14 0 10 -7 18 -15 18 -10 0 -15 10 -15 30 0 30
1 30 55 30 l55 0 0 -135z m-1012 25 c27 -16 33 -26 30 -48 -3 -23 -8 -27 -33
-27 -23 0 -31 5 -33 22 -8 57 -62 24 -62 -38 0 -65 54 -97 91 -53 13 16 35 18
43 5 19 -29 -39 -71 -98 -71 -74 0 -116 42 -116 118 0 91 97 141 178 92z m449
0 c42 -25 61 -82 43 -134 -16 -50 -53 -76 -107 -76 -83 0 -123 38 -122 115 0
55 12 77 55 100 40 20 93 19 131 -5z m793 5 c103 -53 62 -215 -55 -215 -84 0
-125 39 -125 118 0 88 97 140 180 97z m300 -5 c16 -16 20 -33 20 -90 0 -54 4
-72 15 -76 8 -4 15 -15 15 -25 0 -17 -8 -19 -65 -19 -57 0 -65 2 -65 19 0 10
7 21 15 25 11 4 15 21 15 65 0 67 -10 80 -47 60 -23 -12 -25 -18 -21 -68 3
-30 10 -57 16 -59 7 -2 12 -12 12 -23 0 -17 -8 -19 -65 -19 -57 0 -65 2 -65
19 0 10 7 21 15 25 11 4 15 21 15 61 0 40 -4 57 -15 61 -8 4 -15 17 -15 30 0
24 2 25 65 23 36 -1 68 1 72 5 14 13 64 5 83 -14z m-1293 -7 c13 -35 -19 -55
-59 -38 -16 6 -18 0 -18 -54 0 -46 4 -63 15 -67 8 -4 15 -15 15 -25 0 -17 -8
-19 -70 -19 -63 0 -70 2 -70 20 0 11 7 20 15 20 12 0 15 14 15 65 0 51 -3 65
-15 65 -9 0 -15 9 -15 25 0 24 1 24 91 24 71 -1 92 -5 96 -16z m403 6 c0 -7
-7 -17 -16 -24 -15 -10 -15 -16 -3 -48 7 -20 16 -37 19 -37 13 0 30 74 20 84
-24 24 -10 36 45 36 47 0 55 -3 55 -19 0 -10 -7 -21 -15 -25 -8 -3 -42 -61
-74 -129 -49 -105 -63 -125 -89 -136 -27 -12 -35 -11 -57 3 -29 19 -29 20 -14
48 8 15 17 19 39 14 19 -3 33 0 41 10 10 12 5 30 -26 100 -21 47 -44 88 -52
91 -7 3 -13 14 -13 24 0 17 8 19 70 19 46 0 70 -4 70 -11z m485 -249 c4 -7 -2
-9 -17 -5 -32 8 -52 -16 -44 -51 6 -22 11 -25 36 -22 32 5 41 -6 14 -16 -19
-7 -63 18 -65 37 -3 26 3 42 19 55 19 15 48 16 57 2z m105 -10 c23 -23 25 -40
8 -62 -22 -28 -55 -31 -77 -9 -25 25 -27 48 -4 73 21 24 48 23 73 -2z m95 -15
c19 43 19 42 34 -22 5 -25 5 -43 0 -43 -5 0 -9 11 -9 25 0 32 -18 32 -26 0 -8
-33 -17 -32 -37 8 l-16 32 0 -27 c-1 -15 -6 -30 -12 -34 -8 -4 -9 4 -4 27 15
75 17 77 35 34 l18 -40 17 40z m171 23 c5 -8 2 -9 -10 -5 -24 9 -56 -9 -56
-32 0 -25 25 -45 50 -38 24 6 27 -8 4 -17 -25 -10 -64 20 -64 49 0 42 57 75
76 43z m106 -5 c26 -23 23 -59 -6 -78 -28 -19 -58 -9 -76 25 -26 48 40 91 82
53z"/>
<path d="M1822 571 c-8 -5 -12 -21 -10 -37 4 -35 44 -47 65 -18 17 23 16 29
-3 48 -17 18 -32 20 -52 7z m43 -33 c1 -20 -2 -24 -11 -17 -8 7 -14 6 -17 -3
-3 -7 -6 2 -6 20 -1 27 3 33 17 30 11 -2 17 -13 17 -30z"/>
<path d="M1840 550 c0 -5 5 -10 10 -10 6 0 10 5 10 10 0 6 -4 10 -10 10 -5 0
-10 -4 -10 -10z"/>
<path d="M1130 375 c-15 -39 -12 -81 6 -99 18 -18 24 -19 42 -7 9 5 12 26 10
67 -3 52 -5 59 -25 62 -17 3 -26 -3 -33 -23z"/>
<path d="M606 384 c-3 -9 -6 -35 -6 -59 0 -32 5 -47 18 -54 41 -22 75 43 53
102 -12 31 -55 38 -65 11z"/>
<path d="M1412 388 c-18 -18 -15 -94 4 -112 21 -21 30 -20 48 6 41 59 -5 153
-52 106z"/>
<path d="M1436 158 c-21 -30 -4 -60 32 -56 30 3 42 39 22 64 -17 20 -36 17
-54 -8z"/>
<path d="M1810 166 c-19 -23 -8 -61 18 -64 44 -7 67 32 36 62 -19 20 -38 20
-54 2z"/>
</g>
</svg>
